<?xml version="1.0" encoding="utf-8"?>
<!-- Generator: Adobe Illustrator 21.0.2, SVG Export Plug-In . SVG Version: 6.00 Build 0)  -->
<svg version="1.1" id="Layer_1" xmlns="http://www.w3.org/2000/svg" xmlns:xlink="http://www.w3.org/1999/xlink" x="0px" y="0px"
	 viewBox="0 0 522 136" style="enable-background:new 0 0 522 136;" xml:space="preserve">
<style type="text/css">
	.st0{fill:#3F2D20;}
	.st1{fill:#FFFFFF;}
	.st2{fill:#EF8829;}
	.st3{fill:#84BD93;}
	.st4{fill:#CE593F;}
</style>
<g>
	<g>
		<path class="st0" d="M11,85.1h0.6c3.2,0.4,4.9,1.9,4.9,4.5v1.4c0,2.5-1.9,5.6-5.7,9.1c-1.8,1.2-2.9,1.9-3.5,2.1v-0.8
			c2.4,2.5,4.4,4,6,4.6c3.6-2,10.7-4.3,21.4-7L44.9,97c1.5,0.5,2.2,1.4,2.2,2.7c0,1.7-1.3,2.7-4,2.9c-8.9,1.7-16.3,3.6-22.2,5.7
			c0,0.1-1,0.5-3,1.3v-1c6,2.9,9,6.3,9,10.2c0,3.3-2.1,6.5-6.4,9.7c-2,0.9-4,1.3-6,1.3c-4.5,0-8.2-2.1-11-6.3
			c-0.6-1.6-0.9-2.9-0.9-3.8c0-3.9,2-7.4,6.1-10.5c-6-3.9-9-8.3-9-13.1c0-3,2.5-6.3,7.5-10C8.8,85.5,10,85.1,11,85.1z M4.8,96.6
			C4.9,97.2,5,97.6,5,97.7c4.3-2.4,6.4-5,6.4-7.7v-0.3c0,0.2,0.1,0.4,0.3,0.5h-0.5c-1.8,0-3.8,1.8-6.2,5.4C5,95.8,4.9,96.1,4.8,96.6
			z M13.4,112c-3.7,2.8-5.6,5.2-5.6,7.1v1.2c0,1.9,2.1,3.4,6.3,4.4h0.6c3.2,0,5.5-1.9,6.8-5.6v-0.6C21.7,116.8,18.9,114.7,13.4,112z
			"/>
		<path class="st0" d="M59.7,86.3l2.1,0.1c3,0,5.1,1.3,6.3,4c0.3,0.7,1,3.6,2,8.6c1.9,4.4,5.3,6.7,10.1,6.7c4.6,0,9.7-2.7,15.2-8
			c1.1-0.3,1.9-0.4,2.4-0.4c1.2,0.6,1.8,1.3,1.8,2.2c0,1.3-1.2,2.8-3.7,4.6c-3.3,2.9-7.5,5-12.6,6.3c-1.1,0.1-2,0.2-2.6,0.2H80
			c-6.8,0-11.7-3.1-14.7-9.3l-0.3-0.2c0.1,0-0.7,1.5-2.4,4.6c-3.8,5.2-8,7.7-12.5,7.7h-0.2c-3.5,0-6.1-1.9-7.9-5.8
			c-0.4-1.1-0.5-2.1-0.5-2.9c0.2-4.4,2.3-8.9,6.6-13.4C51.3,88,55.3,86.3,59.7,86.3z M46.4,103.8c0,2.6,1.1,4.2,3.3,4.8h0.8
			c3.6,0,7.3-3.9,11-11.6c1.1-2.6,1.6-4.3,1.6-5.3v-0.9c0,0.1-0.8,0.1-2.4,0c-5.3-0.1-9.5,2.6-12.5,8
			C47,100.6,46.4,102.2,46.4,103.8z"/>
		<path class="st0" d="M125.5,36.6h0.5c1.5,0.7,2.3,2,2.3,4v0.2c0,5.4-3.3,16.1-10,32.1c-2.6,6.3-7.6,15-14.9,26.1
			c-1.4,1.4-2.1,2.7-2.1,4v0.5c0,1.5,1,3.8,3,6.9c2.1,2,4.3,3,6.6,3h1.9c2.7-0.2,6.6-1.6,11.7-4.4c4.5-4,7.6-7,9.4-9
			c1.3-1.5,2.4-2.3,3.3-2.3h0.5c1.2,0.6,1.8,1.4,1.8,2.4c-0.3,1.8-4.1,5.7-11.3,11.7c-5.7,4.1-11.3,6.1-17,6.1
			c-7.6,0-12.7-4.2-15.2-12.6c-0.3-1.5-0.5-2.8-0.6-3.8c0-5.9,1.3-11.9,3.8-18.1c0-1,0.8-3.2,2.5-6.7c3.5-10.3,7.3-18.9,11.3-25.7
			c3-5.1,4.6-7.6,4.8-7.6c0.6-0.7,1.3-2,2.2-3.7C121.6,37.5,123.4,36.6,125.5,36.6z M101,93.5c0.1,0.1,0.1,0.4,0.1,0.8l-0.1,0.2
			c0,0-0.1,0-0.4,0h0c0.8-0.9,3-4.4,6.6-10.7c3.6-6.1,7.6-15.2,12.1-27.2c2-6.6,3-10.6,3-12c-0.1-0.9-0.2-1.1-0.2-0.8h0.8
			c-0.8,0-3.5,4.4-8,13.2c-3.6,6.9-7.6,16.6-12,29.1C102.3,88.6,101.6,91.1,101,93.5z"/>
		<path class="st0" d="M152.4,86.3l2.1,0.1c3,0,5.1,1.3,6.3,4c0.3,0.7,1,3.6,2,8.6c1.9,4.4,5.3,6.7,10.1,6.7c4.6,0,9.7-2.7,15.2-8
			c1.1-0.3,1.9-0.4,2.4-0.4c1.2,0.6,1.8,1.3,1.8,2.2c0,1.3-1.2,2.8-3.7,4.6c-3.3,2.9-7.5,5-12.6,6.3c-1.1,0.1-2,0.2-2.6,0.2h-0.6
			c-6.8,0-11.7-3.1-14.7-9.3l-0.3-0.2c0.1,0-0.7,1.5-2.4,4.6c-3.8,5.2-8,7.7-12.5,7.7h-0.2c-3.5,0-6.1-1.9-7.9-5.8
			c-0.4-1.1-0.5-2.1-0.5-2.9c0.2-4.4,2.3-8.9,6.6-13.4C144.1,88,148,86.3,152.4,86.3z M139.1,103.8c0,2.6,1.1,4.2,3.3,4.8h0.8
			c3.6,0,7.3-3.9,11-11.6c1.1-2.6,1.6-4.3,1.6-5.3v-0.9c0,0.1-0.8,0.1-2.4,0c-5.3-0.1-9.5,2.6-12.5,8
			C139.7,100.6,139.1,102.2,139.1,103.8z"/>
		<path class="st0" d="M229.6,49.1c3.1,0,4.6,1.6,4.6,4.7c0.1,0,0.2,0.4,0.2,1.3c-0.4,5.2-0.8,9-1.1,11.2c0-0.6,0.1-0.9,0.2-0.9
			c0,5.1-3,16.2-8.9,33.3c-2.3,4.4-3.4,7-3.4,7.7v0.3c1.6,4.3,5.6,6.4,12,6.6h1.4c10.1,0,19.3-4.3,27.9-12.9
			c1.3-2.3,2.5-3.4,3.7-3.4h0.2c1.1,0,1.9,0.7,2.5,2.2c-0.7,2.8-5,7.1-13,12.9c-8.1,3.6-14.4,5.4-18.8,5.4c-0.5,0-1.8,0.1-4.1,0.3
			c-2,0-5.3-0.8-9.9-2.4c-1.2-0.6-2.8-2-4.8-4.2c0.4,0.2,0.2,0.7-0.5,1.6c-3.5,4.9-8.3,8-14.4,9.5c-1.4,0.6-3.2,0.9-5.2,0.8
			c-7.2,0.2-12.1-3.3-14.6-10.4c-0.1-0.5-0.2-1-0.2-1.5v-1.7c0.1-4.6,2.6-9.4,7.6-14.5c3.2-2.7,7.7-4.4,13.4-5l3.9,0.2
			c1.7,0.4,4.1,1.1,7.2,1.9c-2.5,2.1-3.5,2-3-0.2c0-0.1-0.1-0.7-0.2-1.7c0.2-7.5,1.8-15.2,4.8-23.1l4.8-9.9c1.8-3.6,3.7-6.1,5.7-7.8
			C228.4,49.2,229.1,49.1,229.6,49.1z M188.4,109.6c0,4.3,2.3,7.3,6.9,9c1.1,0.2,1.8,0.3,2.3,0.3c6-0.4,11.4-3.5,16.2-9.5
			c0.8-1.5,1.2-2.5,1.2-3c-0.9-2.7-1.7-6.1-2.3-10.1c0,0-1-0.2-2.9-0.4c-1-0.7-2.2-1-3.6-1c-7.9,0-13.7,3.9-17.4,11.8
			C188.5,108.1,188.4,109,188.4,109.6z M217.8,84.9c0-0.6,0.1-0.9,0.2-0.9c0,0.9-0.2,3.4-0.5,7.4c0.5,5.6,0.8,8.3,0.9,8.3
			c0.2,0,0.5-0.7,1-2c2.1-4,5.1-13.9,9.1-29.6l0.8-13c-0.1-0.3,0-0.5,0.2-0.5c-0.9,0.3-3.2,4.6-7,13.1
			C220,73.5,218.5,79.2,217.8,84.9z"/>
		<path class="st0" d="M288.8,82.1h0.5c1.5,0,2.3,1,2.5,2.9c-1.4,6.7-2.1,10.4-2.1,10.9v0h-0.8c0.4,0,1.4-1,3.1-3.1
			c2.7-2.1,5.3-3.2,7.8-3.2c2.7,0,5.3,1.5,8,4.4h-0.3c0.3,0,2-0.8,5.1-2.4c1.9-0.6,3.6-0.8,5.1-0.8h0.9c5.6,0,9.4,2.2,11.4,6.7
			c1.3,3.4,1.9,6.4,1.9,9.2v1.7c0,0.9-0.4,4.1-1.1,9.5c0,1.9,0.6,3,1.8,3.4c2.7,0,5.6-2.3,8.9-6.9c1.4-2.9,3.8-8.4,7.1-16.5
			c0.9-0.6,1.8-0.9,2.6-0.9c1.7,0.4,2.5,1.3,2.5,2.6c-0.3,1-1.5,4-3.9,8.8c-2.5,7.5-6.3,12.7-11.4,15.6c-2,1-3.7,1.5-5.2,1.5h-0.9
			c-3.2,0-5.3-1.5-6.2-4.5c-0.3-1.4-0.5-2.5-0.5-3.2v-0.6c0-0.7,0.3-3.5,0.9-8.3c0.1-0.4,0.2-0.7,0.2-1c0-5.3-1.3-9.2-3.9-11.7
			c-1.3-0.8-2.6-1.2-4.1-1.2c-3.4,0-6.2,1.4-8.2,4.3l-0.1,0.8c0.9,4.7,1.4,7.8,1.4,9.2c0,4-1.8,7.3-5.4,9.7c-0.8,0.4-1.5,0.6-2,0.6
			h-0.2c-2.2,0-3.4-1.7-3.7-5v-1.3c0-2,1-6.5,3-13.6v-0.3c0-2.5-1.1-4.2-3.3-5.3c-0.1,0-0.2,0-0.5,0c-3.1,0-7.5,5.8-13.1,17.4
			c-1.9,4.2-3.4,6.4-4.7,6.4h-0.6c-1.6-0.4-2.4-1.2-2.4-2.5c2.3-7.4,4.4-15.9,6.3-25.6C286.5,84.6,287.7,82.1,288.8,82.1z
			 M307.1,106.8c-1.3,2.3-1.9,4.4-1.9,6.5c0,0.3-0.1,0.5-0.2,0.4c0.9-0.6,1.3-2.2,1.3-4.6v-1.7C306.2,107,306.5,106.8,307.1,106.8z"
			/>
		<path class="st0" d="M356.9,96.1c4.1,0,6.8,1.5,8,4.5c0.5,1.1,0.7,2.3,0.7,3.4c0,1.4-0.2,3-0.6,4.7c0,0.3,0.2,0.5,0.7,0.5h2.3
			c7.9,0,16.7-3.7,26.3-11c1.3-0.8,2.4-1.2,3.3-1.2h0.5c1,0.5,1.5,1.2,1.5,2.2c-0.1,1.3-2.3,3.3-6.7,6.1c-8.7,5.8-18,8.7-27.9,8.7
			c-0.7-0.1-1.2-0.2-1.6-0.2c-0.5,0-1.4,0.9-2.6,2.8c-3.3,3.9-6.9,5.9-10.8,5.9h-1.4c-3.5,0-5.8-2-7.2-5.9c-0.1-0.7-0.2-1.5-0.2-2.4
			v-0.8c0-6.4,3.3-11.8,10-16.3C353.5,96.5,355.4,96.1,356.9,96.1z M346,113.6c0,2.2,0.8,3.7,2.5,4.4c0.3,0.2,0.7,0.2,1.3,0.2
			c2.5,0,5.1-1.8,7.7-5.4l0.1-0.5c0-0.1-1.2-0.7-3.5-1.8c-2.2-1.3-3.6-3.4-4.5-6.1l0.3,0.2h-0.2c-0.7,0.3-1.9,2.5-3.4,6.4
			C346.3,111,346.2,111.9,346,113.6z M354.8,103.9c0,1.2,1.1,2.4,3.2,3.6c0.8,0.4,1.3,0.6,1.7,0.6h0.2c0.1,0,0.3-1.3,0.7-3.8
			c0-2.3-0.9-3.4-2.7-3.4C355.8,101.1,354.8,102.1,354.8,103.9z"/>
		<path class="st0" d="M403.3,96.1c4.1,0,6.8,1.5,8,4.5c0.5,1.1,0.7,2.3,0.7,3.4c0,1.4-0.2,3-0.6,4.7c0,0.3,0.2,0.5,0.7,0.5h2.3
			c7.9,0,16.7-3.7,26.3-11c1.3-0.8,2.4-1.2,3.3-1.2h0.5c1,0.5,1.5,1.2,1.5,2.2c-0.1,1.3-2.3,3.3-6.7,6.1c-8.7,5.8-18,8.7-27.9,8.7
			c-0.7-0.1-1.2-0.2-1.6-0.2c-0.5,0-1.4,0.9-2.6,2.8c-3.3,3.9-6.9,5.9-10.8,5.9H395c-3.5,0-5.8-2-7.2-5.9c-0.1-0.7-0.2-1.5-0.2-2.4
			v-0.8c0-6.4,3.3-11.8,10-16.3C399.9,96.5,401.8,96.1,403.3,96.1z M392.3,113.6c0,2.2,0.8,3.7,2.5,4.4c0.3,0.2,0.7,0.2,1.3,0.2
			c2.5,0,5.1-1.8,7.7-5.4l0.1-0.5c0-0.1-1.2-0.7-3.5-1.8c-2.2-1.3-3.6-3.4-4.5-6.1l0.3,0.2H396c-0.7,0.3-1.9,2.5-3.4,6.4
			C392.7,111,392.5,111.9,392.3,113.6z M401.2,103.9c0,1.2,1.1,2.4,3.2,3.6c0.8,0.4,1.3,0.6,1.7,0.6h0.2c0.1,0,0.3-1.3,0.7-3.8
			c0-2.3-0.9-3.4-2.7-3.4C402.2,101.1,401.2,102.1,401.2,103.9z"/>
		<path class="st0" d="M483,49.1c3.1,0,4.6,1.6,4.6,4.7c0.1,0,0.2,0.4,0.2,1.3c-0.4,5.2-0.8,9-1.1,11.2c0-0.6,0.1-0.9,0.2-0.9
			c0,5.1-3,16.2-8.9,33.3c-2.3,4.4-3.4,7-3.4,7.7v0.3c1.6,4.3,5.6,6.4,12,6.6h1.4c10.1,0,19.3-4.3,27.9-12.9
			c1.3-2.3,2.5-3.4,3.7-3.4h0.2c1.1,0,1.9,0.7,2.5,2.2c-0.7,2.8-5,7.1-13,12.9c-8.1,3.6-14.4,5.4-18.8,5.4c-0.5,0-1.8,0.1-4.1,0.3
			c-2,0-5.3-0.8-9.9-2.4c-1.2-0.6-2.8-2-4.8-4.2c0.4,0.2,0.2,0.7-0.5,1.6c-3.5,4.9-8.3,8-14.4,9.5c-1.4,0.6-3.2,0.9-5.2,0.8
			c-7.2,0.2-12.1-3.3-14.6-10.4c-0.1-0.5-0.2-1-0.2-1.5v-1.7c0.1-4.6,2.6-9.4,7.6-14.5c3.2-2.7,7.7-4.4,13.4-5l3.9,0.2
			c1.7,0.4,4.1,1.1,7.2,1.9c-2.5,2.1-3.5,2-3-0.2c0-0.1-0.1-0.7-0.2-1.7c0.2-7.5,1.8-15.2,4.8-23.1l4.8-9.9c1.8-3.6,3.7-6.1,5.7-7.8
			C481.8,49.2,482.5,49.1,483,49.1z M441.8,109.6c0,4.3,2.3,7.3,6.9,9c1.1,0.2,1.8,0.3,2.3,0.3c6-0.4,11.4-3.5,16.2-9.5
			c0.8-1.5,1.2-2.5,1.2-3c-0.9-2.7-1.7-6.1-2.3-10.1c0,0-1-0.2-2.9-0.4c-1-0.7-2.2-1-3.6-1c-7.9,0-13.7,3.9-17.4,11.8
			C441.9,108.1,441.8,109,441.8,109.6z M471.2,84.9c0-0.6,0.1-0.9,0.2-0.9c0,0.9-0.2,3.4-0.5,7.4c0.5,5.6,0.8,8.3,0.9,8.3
			c0.2,0,0.5-0.7,1-2c2.1-4,5.1-13.9,9.1-29.6l0.8-13c-0.1-0.3,0-0.5,0.2-0.5c-0.9,0.3-3.2,4.6-7,13.1
			C473.4,73.5,471.9,79.2,471.2,84.9z"/>
	</g>
	<g>
		<polygon class="st1" points="97,100 98,88 103,62 109,42 113,33 118,31 117,24 117,15 121,11 123,14 124,19 131,8 135,8 130,23 
			140,18 141,21 129,31.3 130,38 132,44 104,96 		"/>
		<g>
			<path class="st2" d="M130,42.1c-0.2,0.5-3.1,7.6-6.5,14.7l-6.2-2.3c-1-0.4-1.8-0.8-2.2,0.2c-0.4,1,0.3,1.8,1.3,2.2l5.9,2.2
				c-2.7,5.9-5.1,10.6-8.2,16.3l-4-1.5c-1-0.4-2.2,0.3-2.6,1.3c-0.4,1,0.3,1.6,1.4,2l3.6,1.5c-3.5,6-7.6,13.1-11.4,17
				c0.5-8,3.2-21.2,5.3-30.1l-1.9-0.7l4.8,1.8c1,0.4,2.1-0.1,2.5-1.1c0.4-1-0.1-2.1-1.2-2.5l-3.3-1.2c1.3-5.1,4.4-15,5-17.5l4.6,1.7
				c1,0.4,1.8,0.8,2.3-0.5c0.5-1.3,0.1-2.8-0.9-3.2l-4.8-1.8c0.4-1.2,0.5-1.5,0.5-1.7c0.5-1.4,2.5-2.2,5.3-2.2c0.1,0,2.1,0,5,1.1
				c2.5,0.9,4.4,2.5,4.5,2.6C128.7,40.3,129.6,41.1,130,42.1z"/>
			<path class="st2" d="M100.9,95.7c-0.2,0.3-0.4,0.5-0.7,0.8C100.5,96.2,100.7,95.9,100.9,95.7z"/>
		</g>
		<g>
			<path class="st1" d="M131.8,10.4c0.3,0.1,0.5,0.5,0.4,0.8l0.4-1.2c0.1-0.3,0-0.7-0.4-0.8c-0.3-0.1-0.7,0-0.8,0.4l-0.4,1.2
				C131.1,10.4,131.5,10.3,131.8,10.4z"/>
			<path class="st3" d="M138.4,21.5c-0.1-0.1-0.2-0.4-0.8-0.1c-2.9,1.3-5.2,4-7.5,6.3c-0.7,0.7-1.4,0.9-2.3,0.5
				c-0.8-0.5-0.9-1.4-0.6-2.3l0.4-1.2l5.4-14.5c0.1-0.3-0.1-0.7-0.4-0.8c-0.3-0.1-0.7,0-0.8,0.4l-5.4,14.5l-0.4,1.2
				c-0.3,0.9-1.5,1.3-2.4,1.2c-0.9-0.2-1.7-1-1.7-1.9c-0.1-3.4-0.6-6.6-1.6-9.7c-0.1-0.2-0.3-0.6-0.7-0.4c0,0-0.1,0-0.1,0
				c0,0,0,0,0-0.1c1.4,4.8,1.7,10,0.8,15.2c1.3,0.2,2.6,0.5,3.9,1c1.3,0.5,2.6,1.1,3.7,1.8C130.6,28.1,134.2,24.3,138.4,21.5
				C138.4,21.6,138.4,21.6,138.4,21.5C138.4,21.5,138.4,21.5,138.4,21.5z"/>
		</g>
		<path class="st0" d="M142.4,18.7c-0.5-1.2-1.5-2-2.7-2.4c-1.2-0.4-2.6-0.2-3.8,0.5c-0.7,0.5-1.5,1-2.2,1.5l2.6-6.9
			c0.9-2.4-0.3-5-2.7-5.9c-2.4-0.9-5,0.3-5.9,2.7l-2.6,6.9c-0.2-0.9-0.4-1.7-0.7-2.6c-0.4-1.3-1.3-2.3-2.5-2.9
			c-1.1-0.5-2.5-0.5-3.6,0.1c-2.2,1-3.3,3.5-2.6,5.8c1.3,4.4,1.5,9.2,0.6,14c-3.6,0.4-6.5,2.1-7.6,4.9c0,0,0,0,0,0.1
			c-0.6,2-15.8,48.1-12.7,67.2c0.1,0.7,0.6,1.3,1.3,1.5s1.4,0.1,2-0.3c14.9-12.5,33.5-57.3,34.3-59.2c0,0,0,0,0-0.1
			c1-2.8,0-6-2.6-8.6c2.4-4.2,5.7-7.7,9.6-10.2C142.6,23.5,143.4,20.9,142.4,18.7z M123.6,56.5l-6.2-2.3c-1-0.4-2.2,0.1-2.5,1.2
			c-0.4,1,0.1,2.2,1.2,2.5l5.9,2.2c-2.3,4.9-5,10.3-7.9,15.5l-4-1.5c-1-0.4-2.2,0.1-2.5,1.2c-0.4,1,0.1,2.2,1.2,2.5l3.4,1.3
			c-4.1,7.1-8.4,13.7-12.4,18.1c-0.3-8.6,2-21,4.7-32.3l4.8,1.8c1,0.4,2.2-0.1,2.5-1.2s-0.1-2.2-1.2-2.5l-5.3-2
			c1.6-6.4,3.3-12.3,4.6-16.8l6.7,2.5c1,0.4,2.2-0.1,2.5-1.2c0.4-1-0.1-2.2-1.2-2.5l-6.9-2.6c0.8-2.7,1.4-4.4,1.5-4.7
			c0.5-1.4,2.6-2.4,5.4-2.4c0.1,0,2.1-0.1,5.1,1c2.5,0.9,4.4,2.5,4.5,2.6c2.1,1.8,3,3.9,2.5,5.3C129.7,42.8,127.2,48.7,123.6,56.5z
			 M120.1,13.3c0.4-0.2,0.6,0.2,0.7,0.4c1,3.1,1.5,6.3,1.5,9.7c0,0.9,0.7,1.7,1.6,1.9c0.9,0.2,1.8-0.4,2.2-1.3l5.4-14.5
			c0.1-0.3,0.5-0.5,0.8-0.4c0.3,0.1,0.5,0.5,0.4,0.8l-5.4,14.5c-0.3,0.9,0,1.9,0.8,2.4c0.8,0.5,1.8,0.3,2.5-0.4
			c2.3-2.3,4.5-5,7.5-6.3c0.6-0.3,0.7,0,0.8,0.1c0.2,0.5,0,1-0.4,1.2c-4.2,2.7-7.8,6.5-10.5,11c-1.1-0.7-2.3-1.3-3.7-1.8
			c-1.3-0.5-2.7-0.8-3.9-1c0.9-5.2,0.6-10.4-0.8-15.2C119.4,14.1,119.6,13.6,120.1,13.3z"/>
	</g>
	<g>
		<rect x="343.3" y="94" transform="matrix(0.995 -0.1001 0.1001 0.995 -8.4773 38.1816)" class="st1" width="65.9" height="19.1"/>
		<g>
			<path class="st0" d="M412.9,103.7c-0.5-5.4-5.2-9.3-10.3-8.8c-2.2,0.2-4.2,1.2-5.7,2.8c-0.6-3.2-1.7-8-3.6-13.2
				c-4.4-12.2-11.1-21.5-19.5-27l-0.7-7.1c0.4,0,0.9-0.1,1.4-0.1c4.4-0.4,10.9-1.8,16.5-5.8c8.9-6.3,12.4-16.6,12.5-17
				c0.2-0.6,0.1-1.3-0.3-1.8c-0.4-0.5-1-0.9-1.6-0.9c-0.1,0-1.5,0-3.7,0.2c-4.4,0.4-10.9,1.8-16.5,5.8c-4.2,3-7.2,6.8-9.2,10.1
				l-0.6-6.1c-0.1-1.1-1.1-2-2.3-1.8c-1.1,0.1-2,1.1-1.8,2.3l2.3,22.7c-7.2,7.1-11.9,17.6-13.8,30.5c-0.8,5.5-0.9,10.4-0.9,13.7
				c-1.8-1.2-3.9-1.8-6.1-1.6c-5.2,0.5-8.9,5.3-8.4,10.7c0,0.1,0.1,0.5,0.1,0.7c1,10,9.5,17.4,18.9,16.5c9.4-0.9,16.3-9.9,15.2-19.9
				c0-0.1-0.1-0.6-0.1-0.7c-0.5-5.4-5.2-9.3-10.3-8.8c-2,0.2-3.8,1-5.2,2.3c0-8.8,1.3-27.8,12.9-39.9c13.7,9.5,18.9,27.9,20.6,36.5
				c-1.7-1-3.6-1.4-5.6-1.2c-5.2,0.5-8.9,5.3-8.4,10.7c0,0.1,0.1,0.5,0.1,0.7c1,10,9.5,17.4,18.9,16.5c9.4-0.9,16.3-9.9,15.2-19.9
				C412.9,104.3,412.9,103.8,412.9,103.7z M383.7,34.1c5.2-3.7,11.4-4.7,14.6-5.1c0,0,0,0,0.1,0c-1.5,3.2-4.6,8.5-9.8,12.1
				c-5.3,3.7-11.5,4.8-14.7,5.1C375.5,42.9,378.6,37.7,383.7,34.1z M360.4,106.6c0.7-2,2.4-3.5,4.4-3.7c2.9-0.3,5.5,2,5.8,5.1
				c0,0,0.1,0.6,0.1,0.7c0.8,7.8-4.4,14.6-11.6,15.4c-7.1,0.7-13.6-5-14.4-12.8c0-0.1-0.1-0.6-0.1-0.7c-0.3-3.1,1.8-5.9,4.7-6.1
				c2-0.2,4,0.9,5.1,2.7c0.4,0.7,1.1,1.1,1.9,1c0.8,0,1.6-0.1,2.4-0.2C359.5,107.8,360.1,107.3,360.4,106.6z M397.3,120.2
				c-7.1,0.7-13.6-5-14.4-12.8c0-0.1-0.1-0.7-0.1-0.7c-0.3-3.1,1.8-5.9,4.7-6.1c2-0.2,4,0.9,5.1,2.7c0.4,0.7,1.1,1.1,1.9,1
				c0.8,0,1.6-0.1,2.4-0.2c0.8-0.1,1.4-0.7,1.7-1.4c0.7-2,2.4-3.5,4.4-3.7c2.9-0.3,5.5,2,5.8,5.1c0,0,0.1,0.6,0.1,0.7
				C409.6,112.6,404.4,119.5,397.3,120.2z"/>
		</g>
		<g>
			<path class="st1" d="M387.5,100.6c-2.9,0.3-5,3-4.7,6.1c0,0,0.1,0.6,0.1,0.7c0.8,7.8,7.2,13.5,14.4,12.8
				c7.1-0.7,12.3-7.6,11.5-15.4c0-0.1-0.1-0.6-0.1-0.7c-0.3-3.1-2.9-5.4-5.8-5.1c-2,0.2-3.7,1.6-4.4,3.7c-0.2,0.7-0.9,1.3-1.7,1.4
				c-0.8,0.1-1.6,0.2-2.4,0.2c-0.8,0-1.5-0.4-1.9-1C391.5,101.5,389.5,100.4,387.5,100.6z"/>
			<path class="st1" d="M359.1,124c7.1-0.7,12.3-7.6,11.6-15.4c0-0.1-0.1-0.6-0.1-0.7c-0.3-3.1-2.9-5.4-5.8-5.1
				c-2,0.2-3.7,1.6-4.4,3.7c-0.2,0.7-0.9,1.3-1.7,1.4c-0.8,0.1-1.6,0.2-2.4,0.2c-0.8,0-1.5-0.4-1.9-1c-1.1-1.9-3-2.9-5.1-2.7
				c-2.8,0.3-4.8,2.8-4.7,5.8l0.1,1.4C345.7,119.2,352.1,124.7,359.1,124z"/>
		</g>
		<g>
			<path class="st4" d="M392,102.5c0.1,0.1,0.1,0.1,0.2,0.2C392.1,102.6,392,102.6,392,102.5z"/>
			<path class="st4" d="M403.8,99c0.1,0,0.3,0,0.4,0C404,99.1,403.9,99.1,403.8,99z"/>
			<path class="st4" d="M391.4,101.9c0.1,0.1,0.2,0.1,0.2,0.2C391.6,102.1,391.5,102,391.4,101.9z"/>
			<path class="st4" d="M391.1,101.7c-0.1-0.1-0.2-0.1-0.3-0.2C390.9,101.6,391,101.6,391.1,101.7z"/>
			<path class="st4" d="M404.4,99.1c0.2,0,0.3,0.1,0.5,0.1C404.7,99.2,404.5,99.2,404.4,99.1z"/>
			<path class="st4" d="M403,99.1c0.2,0,0.4,0,0.6,0C403.4,99,403.2,99,403,99.1z"/>
			<path class="st4" d="M407.2,100.6c0.2,0.2,0.3,0.3,0.4,0.5C407.5,101,407.3,100.8,407.2,100.6z"/>
			<path class="st4" d="M405,99.3c0.2,0.1,0.4,0.1,0.6,0.2C405.4,99.4,405.2,99.3,405,99.3z"/>
			<path class="st4" d="M390.2,101.1c0.1,0,0.2,0.1,0.3,0.1C390.4,101.2,390.3,101.2,390.2,101.1z"/>
			<path class="st4" d="M407.2,100.6c-0.1-0.1-0.3-0.3-0.5-0.4C406.9,100.4,407,100.5,407.2,100.6z"/>
			<path class="st4" d="M405.6,99.5c0.2,0.1,0.4,0.2,0.5,0.3C405.9,99.7,405.7,99.6,405.6,99.5z"/>
			<path class="st4" d="M406.2,99.9c0.1,0.1,0.3,0.2,0.4,0.3C406.5,100,406.3,100,406.2,99.9z"/>
			<path class="st4" d="M388.9,100.7c0.1,0,0.2,0,0.3,0.1C389.1,100.7,389,100.7,388.9,100.7z"/>
			<path class="st4" d="M386,115.2c-0.1-0.1-0.1-0.1-0.2-0.2C385.9,115,385.9,115.1,386,115.2z"/>
			<path class="st4" d="M385.2,114C385.2,114,385.1,114,385.2,114C385.1,114,385.2,114,385.2,114z"/>
			<path class="st4" d="M386.9,116.2c-0.1-0.1-0.1-0.1-0.2-0.2C386.8,116.1,386.8,116.1,386.9,116.2z"/>
			<path class="st4" d="M388.8,117.9c-0.1-0.1-0.2-0.1-0.2-0.2C388.7,117.8,388.8,117.8,388.8,117.9z"/>
			<path class="st4" d="M389.6,100.9c0.1,0,0.2,0.1,0.3,0.1C389.8,100.9,389.7,100.9,389.6,100.9z"/>
			<path class="st4" d="M407.7,101.1c-0.7-0.3-1.6-0.4-2.4-0.3c-2,0.2-3.8,1.6-4.4,3.7c-0.2,0.7-0.9,1.3-1.7,1.4
				c-0.8,0.1-1.6,0.2-2.4,0.2c-0.8,0-1.5-0.4-1.9-1c-0.2-0.3-0.3-0.5-0.5-0.7c0,0,0,0,0.1,0c-0.8,0-1.5-0.4-1.9-1
				c-0.1-0.2-0.3-0.4-0.4-0.6c-0.7-0.3-1.6-0.4-2.4-0.3c-2.9,0.3-5.1,3.1-4.8,6.1c0,0,0.1,0.6,0.1,0.7c0.4,3.7,2.1,7,4.6,9.3
				c2.2,1.3,5,2,7.7,1.7c7.1-0.7,12.5-7.6,11.7-15.4c0-0.1-0.1-0.6-0.1-0.7C409,103,408.4,102,407.7,101.1z"/>
			<path class="st4" d="M387.6,116.9c0.1,0,0.1,0.1,0.2,0.1C387.7,117,387.6,116.9,387.6,116.9z"/>
			<path class="st4" d="M384.4,112.7c0,0.1,0.1,0.2,0.1,0.2C384.5,112.9,384.5,112.8,384.4,112.7z"/>
			<path class="st4" d="M388.2,100.6c0.1,0,0.2,0,0.2,0C388.4,100.6,388.3,100.6,388.2,100.6z"/>
			<path class="st4" d="M383.4,110.2c0,0.1,0,0.1,0.1,0.2C383.5,110.3,383.5,110.2,383.4,110.2z"/>
			<path class="st4" d="M383.1,108.7c0,0.1,0,0.2,0.1,0.3C383.1,108.9,383.1,108.8,383.1,108.7z"/>
			<path class="st4" d="M383.9,111.4c0,0.1,0,0.1,0.1,0.2C383.9,111.6,383.9,111.5,383.9,111.4z"/>
		</g>
		<g>
			<path class="st4" d="M365.6,102.9c0.1,0,0.3,0,0.4,0C365.9,102.9,365.7,102.9,365.6,102.9z"/>
			<path class="st4" d="M353.8,106.3c0.1,0.1,0.1,0.1,0.2,0.2C353.9,106.5,353.8,106.4,353.8,106.3z"/>
			<path class="st4" d="M353.2,105.8c0.1,0.1,0.2,0.1,0.2,0.2C353.4,105.9,353.3,105.8,353.2,105.8z"/>
			<path class="st4" d="M352.9,105.5c-0.1-0.1-0.2-0.1-0.3-0.2C352.8,105.4,352.9,105.4,352.9,105.5z"/>
			<path class="st4" d="M352.1,105c0.1,0,0.2,0.1,0.3,0.1C352.2,105.1,352.2,105,352.1,105z"/>
			<path class="st4" d="M366.2,103c0.2,0,0.3,0.1,0.5,0.1C366.5,103,366.4,103,366.2,103z"/>
			<path class="st4" d="M369.4,105c-0.3-0.3-0.6-0.7-0.9-0.9C368.9,104.3,369.2,104.6,369.4,105z"/>
			<path class="st4" d="M364.8,102.9c0.2,0,0.4,0,0.6,0C365.2,102.9,365,102.9,364.8,102.9z"/>
			<path class="st4" d="M351.4,104.7c0.1,0,0.2,0.1,0.3,0.1C351.6,104.8,351.5,104.7,351.4,104.7z"/>
			<path class="st4" d="M366.8,103.1c0.2,0.1,0.4,0.1,0.6,0.2C367.2,103.3,367,103.2,366.8,103.1z"/>
			<path class="st4" d="M367.4,103.3c0.2,0.1,0.4,0.2,0.5,0.3C367.7,103.5,367.6,103.4,367.4,103.3z"/>
			<path class="st4" d="M368,103.7c0.1,0.1,0.3,0.2,0.4,0.3C368.3,103.9,368.2,103.8,368,103.7z"/>
			<path class="st4" d="M347.8,119c-0.1-0.1-0.1-0.1-0.2-0.2C347.7,118.9,347.8,118.9,347.8,119z"/>
			<path class="st4" d="M349.4,120.7c0.1,0,0.1,0.1,0.2,0.1C349.5,120.8,349.5,120.8,349.4,120.7z"/>
			<path class="st4" d="M347,117.9C347,117.9,347,117.8,347,117.9C347,117.8,347,117.9,347,117.9z"/>
			<path class="st4" d="M348.7,120c-0.1-0.1-0.1-0.1-0.2-0.2C348.6,119.9,348.6,120,348.7,120z"/>
			<path class="st4" d="M369.5,105c-0.7-0.3-1.5-0.4-2.3-0.3c-2,0.2-3.8,1.6-4.4,3.7c-0.2,0.7-0.9,1.3-1.7,1.4
				c-0.8,0.1-1.6,0.2-2.4,0.2c-0.8,0-1.5-0.4-1.9-1c-0.2-0.3-0.3-0.5-0.5-0.8c0,0,0,0,0.1,0c-0.8,0-1.5-0.4-1.9-1
				c-0.1-0.2-0.3-0.4-0.4-0.6c-0.7-0.3-1.6-0.4-2.4-0.3c-2.9,0.3-5.1,3.1-4.8,6.2c0,0.1,0.1,0.6,0.1,0.7c0.4,3.7,2.2,6.9,4.6,9.2
				c2.2,1.3,5,2,7.7,1.7c7.1-0.7,12.5-7.6,11.7-15.4c0-0.1-0.1-0.6-0.1-0.7C370.7,106.8,370.1,105.8,369.5,105z"/>
			<path class="st4" d="M350.7,121.7c-0.1-0.1-0.2-0.1-0.2-0.2C350.5,121.6,350.6,121.7,350.7,121.7z"/>
			<path class="st4" d="M345.7,115.3c0,0.1,0,0.1,0.1,0.2C345.7,115.4,345.7,115.3,345.7,115.3z"/>
			<path class="st4" d="M346.2,116.5c0,0.1,0.1,0.2,0.1,0.2C346.3,116.7,346.3,116.6,346.2,116.5z"/>
			<path class="st4" d="M350,104.4c0.1,0,0.2,0,0.2,0C350.2,104.4,350.1,104.4,350,104.4z"/>
			<path class="st4" d="M344.9,112.6c0,0.1,0,0.2,0.1,0.3C344.9,112.7,344.9,112.7,344.9,112.6z"/>
			<path class="st4" d="M345.3,114c0,0.1,0,0.1,0.1,0.2C345.3,114.2,345.3,114.1,345.3,114z"/>
			<path class="st4" d="M350.7,104.5c0.1,0,0.2,0,0.3,0.1C350.9,104.6,350.8,104.5,350.7,104.5z"/>
		</g>
		<path class="st1" d="M398.4,29C398.4,29,398.3,29,398.4,29c-3.3,0.3-9.4,1.4-14.7,5.1c-5.1,3.6-8.2,8.8-9.8,12.1
			c3.2-0.3,9.4-1.4,14.7-5.1C393.8,37.4,396.8,32.2,398.4,29z"/>
		<g>
			<path class="st3" d="M374.8,46c-0.3,0-0.6,0.1-0.8,0.1C374.2,46.1,374.5,46.1,374.8,46z"/>
			<path class="st3" d="M398.4,29c-0.2,0.4-0.4,0.7-0.6,1.1C398,29.7,398.2,29.3,398.4,29z"/>
			<path class="st3" d="M375.9,45.9c-0.3,0-0.6,0.1-0.9,0.1C375.3,46,375.6,45.9,375.9,45.9z"/>
			<path class="st3" d="M397.1,31.4c0.2-0.4,0.5-0.9,0.7-1.3C397.6,30.5,397.4,30.9,397.1,31.4z"/>
			<path class="st3" d="M377.1,45.7c-0.4,0.1-0.7,0.1-1.1,0.2C376.3,45.8,376.7,45.7,377.1,45.7z"/>
			<path class="st3" d="M386.9,35.7c-4,2.8-6.7,6.6-8.5,9.7c3.1-0.7,6.8-2,10.2-4.3c4-2.8,6.7-6.6,8.5-9.7
				C394,32.1,390.3,33.4,386.9,35.7z"/>
			<path class="st3" d="M378.3,45.4c-0.4,0.1-0.7,0.2-1.1,0.2C377.6,45.6,378,45.5,378.3,45.4z"/>
		</g>
	</g>
</g>
</svg>
